HIERARCHY
ROOT Hips
{
	OFFSET 0.00000 0.00000 0.00000
	CHANNELS 6 Xposition Yposition Zposition Zrotation Yrotation Xrotation 
	JOINT LHipJoint
	{
		OFFSET 0 0 0
		CHANNELS 3 Zrotation Yrotation Xrotation
		JOINT LeftHip
		{
			OFFSET 1.24777 -1.64261 0.71711
			CHANNELS 3 Zrotation Yrotation Xrotation
			JOINT LeftKnee
			{
				OFFSET 2.49329 -6.85026 0.00000
				CHANNELS 3 Zrotation Yrotation Xrotation
				JOINT LeftAnkle
				{
					OFFSET 2.36770 -6.50520 0.00000
					CHANNELS 3 Zrotation Yrotation Xrotation
					JOINT LeftToe
					{
						OFFSET 0.14820 -0.40718 2.21395
						CHANNELS 3 Zrotation Yrotation Xrotation
						End Site
						{
							OFFSET 0.00000 -0.00000 1.13491
						}
					}
				}
			}
		}
	}
	JOINT RHipJoint
	{
		OFFSET 0 0 0
		CHANNELS 3 Zrotation Yrotation Xrotation
		JOINT RightHip
		{
			OFFSET -1.18320 -1.64261 0.71711
			CHANNELS 3 Zrotation Yrotation Xrotation
			JOINT RightKnee
			{
				OFFSET -2.46559 -6.77417 0.00000
				CHANNELS 3 Zrotation Yrotation Xrotation
				JOINT RightAnkle
				{
					OFFSET -2.38450 -6.55136 0.00000
					CHANNELS 3 Zrotation Yrotation Xrotation
					JOINT RightToe
					{
						OFFSET -0.17454 -0.47954 2.02925
						CHANNELS 3 Zrotation Yrotation Xrotation
						End Site
						{
							OFFSET -0.00000 -0.00000 1.05076
						}
					}
				}
			}
		}
	}
	JOINT lowerback
	{
		OFFSET 0 0 0
		CHANNELS 3 Zrotation Yrotation Xrotation
		JOINT Chest
		{
			OFFSET -0.02305 1.98660 0.00319
			CHANNELS 3 Zrotation Yrotation Xrotation
			JOINT Chest2
			{
				OFFSET -0.00718 1.99033 -0.00533
				CHANNELS 3 Zrotation Yrotation Xrotation
				JOINT lowerneck
				{
					OFFSET 0 0 0
					CHANNELS 3 Zrotation Yrotation Xrotation
					JOINT Neck
					{
						OFFSET 0.00095 1.61015 0.10698
						CHANNELS 3 Zrotation Yrotation Xrotation
						JOINT Head
						{
							OFFSET -0.01060 1.59924 0.01317
							CHANNELS 3 Zrotation Yrotation Xrotation
							End Site
							{
								OFFSET -0.00458 1.63304 -0.00592
							}
						}
					}
				}
				JOINT LeftCollar
				{
					OFFSET 0 0 0
					CHANNELS 3 Zrotation Yrotation Xrotation
					JOINT LeftShoulder
					{
						OFFSET 3.05381 1.47088 -0.01697
CHANNELS 3 Zrotation Xrotation Yrotation
						JOINT LeftElbow
						{
OFFSET 0 -4.251060 0.000000
CHANNELS 3 Zrotation Xrotation Yrotation
							JOINT LeftWrist
							{
OFFSET 0 -3.275920 0.000000
CHANNELS 3 Zrotation Xrotation Yrotation
								JOINT lhand
								{
									OFFSET 0 0 0
CHANNELS 3 Zrotation Xrotation Yrotation
									JOINT LFingers
									{
OFFSET 0 -0.657810 0.000000
CHANNELS 3 Zrotation Xrotation Yrotation
										End Site
										{
OFFSET 0 -0.530340 0.000000
										}
									}
								}
								JOINT LThumb
								{
OFFSET 0 0.000000 0.000000
CHANNELS 3 Zrotation Xrotation Yrotation
									End Site
									{
OFFSET 0 -0.538440 0.538440
									}
								}
							}
						}
					}
				}
				JOINT RightCollar
				{
					OFFSET 0 0 0
					CHANNELS 3 Zrotation Yrotation Xrotation
					JOINT RightShoulder
					{
						OFFSET -2.83695 1.31619 -0.22674
CHANNELS 3 Zrotation Xrotation Yrotation
						JOINT RightElbow
						{
OFFSET 0 -4.460730 0.000000
CHANNELS 3 Zrotation Xrotation Yrotation
							JOINT RightWrist
							{
OFFSET 0 -3.444160 0.000000
CHANNELS 3 Zrotation Xrotation Yrotation
								JOINT rhand
								{
									OFFSET 0 0 0
CHANNELS 3 Zrotation Xrotation Yrotation
									JOINT RFingers
									{
OFFSET 0 -0.616510 0.000000
CHANNELS 3 Zrotation Xrotation Yrotation
										End Site
										{
OFFSET 0 -0.497050 0.000000
										}
									}
								}
								JOINT RThumb
								{
OFFSET 0 0.000000 0.000000
CHANNELS 3 Zrotation Xrotation Yrotation
									End Site
									{
OFFSET 0 -0.504640 0.504640
									}
								}
							}
						}
					}
				}
			}
		}
	}
}
MOTION
Frames: 8
Frame Time: 0.008333333333333333
5.172300 16.937100 -29.126400 -2.266100 1.947400 8.380800 0.000000 0.000000 0.000000 -19.247100 -4.931500 -19.794400 2.979200 10.661300 31.146100 0.961200 3.899000 -20.319500 0.710100 5.385500 15.011400 0.000000 0.000000 0.000000 20.076900 10.972100 -14.254500 -2.669400 -10.139600 29.430000 -1.275000 1.598100 -20.882500 -7.304800 -15.583300 50.018100 0.390500 0.538800 -6.822100 1.046200 0.665000 -1.634900 0.914200 0.332800 2.130100 -1.972600 -1.947900 -7.860700 2.733100 -2.474500 -0.220100 1.104100 -1.181200 1.325100 -0.000000 0.000000 0.000000 2.124200 8.541400 -46.182000 23.032300 -34.124100 7.156400 10.614900 -6.874000 -1.141100 0.000000 0.000000 0.000000 -7.125000 0.000000 0.000000 -12.647500 30.989400 -4.426100 -0.000000 0.000000 0.000000 0.279700 6.730400 31.650900 -16.964500 -26.810900 -4.071300 -32.618700 28.570700 14.218000 0.000000 0.000000 0.000000 7.125000 0.000000 -0.000000 -4.913200 46.662800 0.202100
5.160571 16.952174 -29.116690 -2.267584 2.004392 8.376879 0.000000 0.000000 0.000000 -19.104343 -4.330905 -19.983578 2.997916 10.691632 31.246830 0.979453 3.299624 -20.166250 0.466388 4.326178 12.003645 0.000000 0.000000 0.000000 20.159504 11.095407 -14.017502 -2.629991 -10.070555 29.205452 -1.283360 1.290005 -21.034558 -7.209723 -15.505968 49.663118 0.286818 0.515861 -6.866901 1.088392 0.639801 -1.608376 1.014424 0.319614 2.181075 -1.978070 -1.976047 -7.937864 2.732941 -2.511504 -0.160708 1.103198 -1.198896 1.358696 0.000000 0.000000 0.000000 2.149885 8.491998 -46.243941 23.037057 -34.129381 7.159105 10.633653 -6.819141 -1.652871 0.000000 0.000000 0.000000 -7.125000 0.000000 0.000000 -12.703966 31.497907 -4.287753 0.000000 0.000000 0.000000 0.189577 6.660040 31.570363 -16.977891 -26.828687 -4.077391 -29.338336 28.311630 15.712186 0.000000 0.000000 0.000000 7.125000 0.000000 0.000000 -1.590733 47.851055 0.089955
5.148736 16.943434 -29.114606 -2.281877 1.991643 8.464023 0.000000 0.000000 0.000000 -19.182314 -3.743875 -20.425648 2.999093 10.693575 31.253307 0.892742 4.029548 -19.742837 0.189903 2.765307 7.628426 0.000000 0.000000 0.000000 20.212224 11.360921 -14.002485 -2.620656 -10.054096 29.152090 -1.268132 0.289265 -21.207869 -6.598279 -14.983791 47.337595 0.218345 0.538911 -7.083273 1.117635 0.671592 -1.506214 1.089298 0.334347 2.405207 -1.946205 -2.018299 -7.989791 2.703296 -2.567120 -0.263990 1.085926 -1.227167 1.334699 0.000000 0.000000 0.000000 2.165180 8.242772 -46.311935 23.006664 -34.096091 7.142028 10.739248 -6.643844 -2.222448 0.000000 0.000000 0.000000 -7.125000 0.000000 0.000000 -12.703012 32.066293 -4.109110 0.000000 0.000000 0.000000 0.080191 6.520680 31.629811 -17.102526 -26.992645 -4.133802 -29.118198 28.283318 15.975312 0.000000 0.000000 0.000000 7.125000 0.000000 0.000000 -1.357636 48.118365 0.103389
5.132575 16.943637 -29.115617 -2.340484 2.063066 8.474547 0.000000 0.000000 0.000000 -19.040791 -3.887591 -20.408910 2.994991 10.686917 31.231119 0.885512 4.165047 -19.753841 0.184956 2.769335 7.637357 0.000000 0.000000 0.000000 20.377913 11.866107 -13.839252 -2.628255 -10.067421 29.195342 -1.296093 -0.346606 -21.658367 -6.386534 -14.792581 46.513734 0.110175 0.541511 -7.221470 1.181025 0.678631 -1.368642 1.218980 0.336106 2.621913 -1.920369 -2.076126 -8.037489 2.676947 -2.643042 -0.378011 1.070092 -1.265498 1.307075 0.000000 0.000000 0.000000 2.194813 7.954583 -46.414841 22.961129 -34.046230 7.116508 10.867842 -6.467997 -2.886890 0.000000 0.000000 0.000000 -7.125000 0.000000 0.000000 -12.699587 32.729999 -3.899717 0.000000 0.000000 0.000000 -0.006753 6.309520 31.602961 -17.180120 -27.094564 -4.169064 -28.904359 28.207064 16.114585 0.000000 0.000000 0.000000 7.125000 0.000000 0.000000 -1.131546 48.240496 0.090356
5.116641 16.941930 -29.118393 -2.430137 2.090499 8.512133 0.000000 0.000000 0.000000 -18.882748 -4.020758 -20.469031 2.997658 10.691240 31.245566 0.864563 4.487526 -19.744108 0.158805 2.567666 7.077299 0.000000 0.000000 0.000000 20.568805 12.425318 -13.686170 -2.627900 -10.066800 29.193270 -1.324805 -0.877649 -22.091247 -6.287338 -14.701131 46.124239 0.052777 0.544248 -7.273611 1.248281 0.683553 -1.303825 1.322417 0.337418 2.716271 -1.917431 -2.119927 -8.085072 2.658046 -2.700005 -0.401708 1.061195 -1.294085 1.308694 0.000000 0.000000 0.000000 2.213401 7.769275 -46.409556 22.874348 -33.951134 7.068023 10.963858 -6.327834 -3.169212 0.000000 0.000000 0.000000 -7.125000 0.000000 0.000000 -12.666205 33.013800 -3.800049 0.000000 0.000000 0.000000 -0.084697 6.159609 31.593932 -17.224415 -27.152724 -4.189214 -28.851521 28.181190 16.175221 0.000000 0.000000 0.000000 7.125000 0.000000 0.000000 -1.072086 48.299865 0.087245
5.102244 16.941452 -29.119962 -2.512461 2.088369 8.559766 0.000000 0.000000 0.000000 -18.724569 -4.263373 -20.473077 2.999671 10.694585 31.256633 0.852586 4.793438 -19.818046 0.157599 2.557846 7.050108 0.000000 0.000000 0.000000 20.738261 12.942383 -13.556446 -2.626900 -10.064996 29.187616 -1.352265 -1.302510 -22.481394 -6.236624 -14.653828 45.924254 0.018478 0.544643 -7.282387 1.306868 0.684700 -1.288126 1.402467 0.337400 2.736251 -1.940349 -2.152803 -8.126035 2.649891 -2.741855 -0.347458 1.060671 -1.314689 1.334539 0.000000 0.000000 0.000000 2.222291 7.664379 -46.318161 22.748437 -33.812519 6.997803 11.024869 -6.218574 -3.189371 0.000000 0.000000 0.000000 -7.125000 0.000000 0.000000 -12.620618 33.035981 -3.778825 0.000000 0.000000 0.000000 -0.150885 6.067745 31.591689 -17.239090 -27.171880 -4.195966 -28.892950 28.185180 16.172424 0.000000 0.000000 0.000000 7.125000 0.000000 0.000000 -1.112969 48.303324 0.090728
5.090647 16.942920 -29.118415 -2.558560 2.050455 8.619683 0.000000 0.000000 0.000000 -18.608988 -4.541759 -20.437890 3.000594 10.695991 31.261372 0.851728 5.032549 -19.962529 0.175079 2.695365 7.431789 0.000000 0.000000 0.000000 20.842241 13.313595 -13.475938 -2.622818 -10.057852 29.164223 -1.361440 -1.734024 -22.732733 -6.095889 -14.520611 45.365338 -0.005883 0.546191 -7.280915 1.344826 0.687837 -1.311765 1.455489 0.338809 2.710213 -1.977565 -2.174609 -8.162442 2.637203 -2.768875 -0.226011 1.061652 -1.327890 1.381249 0.000000 0.000000 0.000000 2.216298 7.622530 -46.153290 22.590260 -33.637682 6.909995 11.036764 -6.129272 -3.036160 0.000000 0.000000 0.000000 -7.125000 0.000000 0.000000 -12.587764 32.884263 -3.815922 0.000000 0.000000 0.000000 -0.212934 6.042774 31.611841 -17.239648 -27.172596 -4.196168 -28.920938 28.192402 16.168076 0.000000 0.000000 0.000000 7.125000 0.000000 0.000000 -1.140910 48.302838 0.092926
5.080721 16.944293 -29.112987 -2.556420 2.012652 8.669981 0.000000 0.000000 0.000000 -18.564239 -4.695194 -20.409961 2.999967 10.695007 31.258061 0.853133 5.191444 -20.079589 0.181980 2.747559 7.576663 0.000000 0.000000 0.000000 20.882655 13.511658 -13.420819 -2.617574 -10.048641 29.134383 -1.355241 -2.166407 -22.868486 -5.861610 -14.292676 44.423395 -0.056527 0.547633 -7.324288 1.366137 0.692826 -1.323292 1.506934 0.340833 2.721486 -2.014056 -2.194384 -8.195730 2.607571 -2.792790 -0.099068 1.057314 -1.340032 1.428734 0.000000 0.000000 0.000000 2.200909 7.577246 -45.977841 22.426013 -33.455162 6.819271 11.016743 -6.031879 -2.918018 0.000000 0.000000 0.000000 -7.125000 0.000000 0.000000 -12.585786 32.766045 -3.852103 0.000000 0.000000 0.000000 -0.274619 6.042766 31.629371 -17.248686 -27.184412 -4.200320 -28.928927 28.190008 16.178259 0.000000 0.000000 0.000000 7.125000 0.000000 0.000000 -1.147320 48.315592 0.093887
